<svg width="1323" height="353" viewBox="0 0 1323 353" fill="none" xmlns="http://www.w3.org/2000/svg">
<path fill-rule="evenodd" clip-rule="evenodd" d="M528.95 354.091C524.366 353.88 521.14 353.261 518.887 352.191C516.481 351.052 514.485 349.323 512.973 347.055L484.467 306.448C482.639 303.58 481.804 301.238 481.804 299.126C481.804 296.515 482.847 293.889 484.902 291.318C486.453 289.559 488.093 287.657 489.951 285.443C491.877 283.154 493.745 281.002 495.583 278.986L501.141 272.371C503.398 269.355 506.244 268.683 508.206 268.683C511.244 268.683 513.951 270.222 515.824 273.016L564.457 341.922L564.605 342.224C565.272 343.563 565.593 344.803 565.593 346.016C565.593 349.681 563.247 353.727 556.666 354.083L556.552 354.091L528.95 354.091ZM425.468 354.091C423.048 354.091 420.829 353.135 419.041 351.329C417.272 349.577 416.319 347.354 416.319 344.938V166.004C416.319 163.42 417.268 161.108 419.066 159.318C420.844 157.529 423.062 156.578 425.468 156.578H454.578C456.959 156.578 459.172 157.522 460.975 159.305C462.788 161.14 463.727 163.445 463.727 166.004V216.31L510.858 161.054C513.235 158.149 516.436 156.578 520.062 156.578H558.593C559.981 156.578 564.205 156.578 565.939 160.026C567.026 162.222 566.769 164.71 565.263 166.706L467.007 281.708C464.804 284.325 463.727 287.647 463.727 291.849V344.938C463.727 347.273 462.872 349.442 461.257 351.208C459.548 353.09 457.235 354.091 454.578 354.091H425.468Z" fill="#20214F"/>
<path fill-rule="evenodd" clip-rule="evenodd" d="M731.067 354.362C729.091 354.362 727.135 353.693 725.243 352.379C722.57 350.536 721.696 348.291 721.429 346.735L708.312 296.987C708.174 296.399 707.971 295.87 707.2 295.297C706.287 294.613 705.619 294.536 705.2 294.536H652.915C652.49 294.536 651.818 294.616 650.899 295.3C650.134 295.873 649.931 296.411 649.842 296.814L636.646 346.635C636.246 348.955 634.947 350.936 632.872 352.379C630.96 353.698 629.004 354.362 627.047 354.362H600.636C598.368 354.362 596.377 353.359 595.028 351.539C593.773 349.886 593.299 347.799 593.729 345.699L641.483 164.097C642.17 161.99 643.301 160.375 644.927 159.038C646.685 157.603 648.79 156.847 651.028 156.847H707.087C709.018 156.847 710.906 157.452 712.699 158.646C714.577 159.895 715.871 161.543 716.548 163.544L764.475 345.731V347.095C764.475 351.44 761.658 354.362 757.474 354.362H731.067ZM660.499 256.705C660.627 257.036 660.859 257.093 661.269 257.093H696.845C697.443 257.093 697.547 256.962 697.626 256.866C697.774 256.676 697.858 256.569 697.759 256.135L682.641 200.528L682.602 200.231C682.562 199.92 682.123 199.549 681.866 199.357C680.972 198.685 680.325 198.601 679.86 198.601H678.245C677.82 198.601 677.148 198.678 676.259 199.35C676.081 199.48 675.552 199.898 675.517 200.202L675.478 200.506L660.573 256.307L660.499 256.705Z" fill="#20214F"/>
<path fill-rule="evenodd" clip-rule="evenodd" d="M814.605 353.283C811.3 353.283 808.751 352.744 806.809 351.64C804.685 350.425 803.059 348.431 801.982 345.714L795.579 331.325C794.384 328.457 793.865 326.533 793.865 324.996C793.865 322.309 794.863 319.811 796.824 317.578L883.365 200.1C883.825 199.401 884.141 198.616 884.141 198.07C884.111 197.776 883.43 197.522 881.972 197.522H801.671C799.087 197.522 796.731 196.526 794.853 194.641C792.971 192.771 791.973 190.412 791.973 187.828V166.812C791.973 164.23 792.971 161.872 794.858 159.989C796.74 158.11 799.097 157.116 801.671 157.116H932.913C935.477 157.116 937.829 158.107 939.716 159.982C941.608 161.879 942.601 164.235 942.601 166.812V186.754C942.601 189.911 941.554 193.142 939.494 196.351L853.348 311.405C852.616 312.406 852.3 313.088 852.157 313.49C852.493 313.586 853.051 313.686 853.946 313.686L933.145 313.149C935.941 313.149 938.392 314.147 940.269 316.037C942.142 317.902 943.145 320.355 943.145 323.109V343.59C943.145 346.174 942.142 348.533 940.25 350.415C938.387 352.285 936.03 353.283 933.446 353.283H814.605Z" fill="#20214F"/>
<path fill-rule="evenodd" clip-rule="evenodd" d="M995.962 353.283C992.657 353.283 990.108 352.744 988.166 351.64C986.042 350.425 984.417 348.431 983.34 345.714L976.942 331.323C975.741 328.45 975.223 326.526 975.223 324.996C975.223 322.309 976.22 319.811 978.182 317.578L1064.72 200.1C1065.18 199.401 1065.5 198.616 1065.5 198.07C1065.47 197.776 1064.79 197.522 1063.33 197.522H983.029C980.44 197.522 978.083 196.524 976.206 194.634C974.333 192.769 973.33 190.41 973.33 187.828V166.812C973.33 164.235 974.328 161.874 976.22 159.989C978.093 158.112 980.45 157.116 983.029 157.116H1114.27C1116.83 157.116 1119.19 158.107 1121.07 159.982C1122.97 161.879 1123.96 164.235 1123.96 166.812V186.754C1123.96 189.911 1122.91 193.142 1120.85 196.351L1034.71 311.405C1033.97 312.406 1033.66 313.088 1033.51 313.49C1033.85 313.586 1034.41 313.686 1035.3 313.686L1114.5 313.149C1117.3 313.149 1119.75 314.147 1121.63 316.037C1123.5 317.902 1124.5 320.355 1124.5 323.109V343.59C1124.5 346.174 1123.5 348.533 1121.61 350.415C1119.74 352.285 1117.39 353.283 1114.8 353.283H995.962Z" fill="#20214F"/>
<path fill-rule="evenodd" clip-rule="evenodd" d="M1289.43 354.362C1287.45 354.362 1285.49 353.693 1283.6 352.379C1280.93 350.536 1280.06 348.291 1279.79 346.735L1266.67 296.987C1266.54 296.401 1266.33 295.873 1265.56 295.292C1264.65 294.616 1263.98 294.536 1263.55 294.536H1211.28C1210.85 294.536 1210.18 294.616 1209.26 295.3C1208.49 295.873 1208.29 296.411 1208.2 296.814L1195.01 346.64C1194.6 348.967 1193.3 350.946 1191.22 352.384C1189.33 353.695 1187.37 354.362 1185.4 354.362H1158.99C1156.72 354.362 1154.73 353.359 1153.38 351.539C1152.13 349.871 1151.66 347.789 1152.09 345.699L1199.84 164.097C1200.54 161.98 1201.67 160.362 1203.3 159.033C1205.05 157.603 1207.15 156.847 1209.39 156.847H1265.44C1267.38 156.847 1269.28 157.455 1271.06 158.65C1272.94 159.898 1274.23 161.546 1274.91 163.544L1322.83 345.731V347.095C1322.83 351.44 1320.02 354.362 1315.83 354.362H1289.43ZM1218.86 256.705C1218.99 257.036 1219.22 257.093 1219.63 257.093H1255.2C1255.8 257.093 1255.91 256.962 1255.99 256.856C1256.13 256.676 1256.21 256.569 1256.12 256.122L1241 200.528L1240.96 200.231C1240.92 199.92 1240.48 199.549 1240.23 199.357C1239.32 198.678 1238.65 198.601 1238.22 198.601H1236.6C1236.18 198.601 1235.51 198.678 1234.62 199.35C1234.4 199.517 1233.91 199.91 1233.87 200.216L1233.83 200.511L1218.93 256.307L1218.86 256.705Z" fill="#20214F"/>
<path fill-rule="evenodd" clip-rule="evenodd" d="M494.45 80.7112L498.53 84.3717C489.169 92.8929 478.147 97.1536 465.466 97.1536C451.864 97.1536 440.272 92.3627 430.691 82.7816C421.11 73.2001 416.319 61.6087 416.319 48.0069C416.319 34.4449 421.11 22.8632 430.691 13.2621C440.272 3.66066 451.864 -1.14014 465.466 -1.14014C478.147 -1.14014 489.169 3.12053 498.53 11.6419L494.45 15.3624C486.208 8.04146 476.547 4.38066 465.466 4.38066C453.424 4.38066 443.143 8.64133 434.621 17.1627C426.1 25.6836 421.84 35.9649 421.84 48.0069C421.84 60.0885 426.1 70.3897 434.621 78.9111C443.143 87.4324 453.424 91.6927 465.466 91.6927C476.547 91.6927 486.208 88.0321 494.45 80.7112Z" fill="#20214F"/>
<path fill-rule="evenodd" clip-rule="evenodd" d="M596.134 13.052C605.755 22.6732 610.566 34.2849 610.566 47.8868C610.566 61.4885 605.755 73.1004 596.134 82.7215C586.512 92.3427 574.901 97.1536 561.299 97.1536C547.697 97.1536 536.085 92.3427 526.464 82.7215C516.843 73.1004 512.032 61.4885 512.032 47.8868C512.032 34.2849 516.843 22.6732 526.464 13.052C536.085 3.43081 547.697 -1.38013 561.299 -1.38013C574.901 -1.38013 586.512 3.43081 596.134 13.052ZM561.299 4.14067C549.217 4.14067 538.906 8.41147 530.365 16.9524C521.823 25.4939 517.553 35.8051 517.553 47.8868C517.553 59.9684 521.823 70.2899 530.365 78.8509C538.906 87.4123 549.217 91.6927 561.299 91.6927C573.381 91.6927 583.692 87.4123 592.233 78.8509C600.774 70.2899 605.045 59.9684 605.045 47.8868C605.045 35.8051 600.774 25.4939 592.233 16.9524C583.692 8.41147 573.381 4.14067 561.299 4.14067Z" fill="#20214F"/>
<path fill-rule="evenodd" clip-rule="evenodd" d="M627.068 0.00012207H633.009L682.335 85.3917V0.00012207H687.736V96.0133H682.335L632.469 9.78159V96.0133H627.068V0.00012207Z" fill="#20214F"/>
<path fill-rule="evenodd" clip-rule="evenodd" d="M729.622 42.846C722.781 40.5659 717.38 37.4455 713.42 33.4849C709.459 29.5243 707.479 24.7236 707.479 19.0829C707.479 13.5623 709.459 8.81133 713.42 4.8308C717.38 0.85013 722.181 -1.14014 727.822 -1.14014C733.422 -1.14014 738.223 0.840397 742.224 4.80093C744.424 6.9212 745.944 9.3016 746.784 11.942L741.924 13.862C741.203 11.9019 740.023 10.1017 738.383 8.46133C735.463 5.58093 731.942 4.14066 727.822 4.14066C723.701 4.14066 720.18 5.5908 717.26 8.4912C714.34 11.3916 712.88 14.9221 712.88 19.0829C712.88 23.2035 714.34 26.7237 717.26 29.6441C719.98 32.3245 723.741 34.7851 728.542 37.0252C736.223 39.5056 742.684 43.3661 747.924 48.6068C753.485 54.1275 756.266 60.8085 756.266 68.6496C756.266 76.5307 753.485 83.2519 747.924 88.8123C742.364 94.3731 735.663 97.1536 727.822 97.1536C719.98 97.1536 713.28 94.3531 707.719 88.7525C703.278 84.3116 700.618 79.1511 699.738 73.2701L704.839 71.4101C705.399 76.6108 707.619 81.1512 711.499 85.032C716.02 89.5527 721.461 91.8128 727.822 91.8128C734.223 91.8128 739.683 89.5527 744.204 85.032C748.725 80.5112 750.985 75.0507 750.985 68.6496C750.985 62.2887 748.725 56.848 744.204 52.3273C740.243 48.3668 735.383 45.2063 729.622 42.846Z" fill="#20214F"/>
<path fill-rule="evenodd" clip-rule="evenodd" d="M791.97 5.40106V96.0133H786.57V5.40106H762.266V0.00012207H816.274V5.40106H791.97Z" fill="#20214F"/>
<path fill-rule="evenodd" clip-rule="evenodd" d="M851.619 62.6488C851.099 62.6889 850.559 62.7089 849.999 62.7089H833.676V96.0133H828.275V0.00012207H853.479C860.8 1.00026 867.021 4.06092 872.142 9.18132C878.262 15.3023 881.323 22.6833 881.323 31.3245C881.323 40.0057 878.262 47.4068 872.142 53.5277C867.901 57.768 863.04 60.5485 857.559 61.8688L879.703 96.0133H873.042L851.619 62.6488ZM833.676 5.46079V57.2479H849.999C857.12 57.2479 863.21 54.7179 868.271 49.6571C873.331 44.5963 875.862 38.4856 875.862 31.3245C875.862 24.1635 873.331 18.0625 868.271 13.0221C863.21 7.98132 857.12 5.46079 849.999 5.46079H833.676Z" fill="#20214F"/>
<path fill-rule="evenodd" clip-rule="evenodd" d="M950.872 0.00012207H956.333V69.0097C955.333 76.3307 952.273 82.5515 947.152 87.6724C941.031 93.7929 933.65 96.8536 925.009 96.8536C916.327 96.8536 908.927 93.7929 902.806 87.6724C896.685 81.5513 893.624 74.1704 893.624 65.5292V0.00012207H899.085V65.5292C899.085 72.6503 901.616 78.7409 906.676 83.8017C911.737 88.8625 917.848 91.3929 925.009 91.3929C932.17 91.3929 938.271 88.8625 943.311 83.8017C948.352 78.7409 950.872 72.6503 950.872 65.5292V0.00012207Z" fill="#20214F"/>
<path fill-rule="evenodd" clip-rule="evenodd" d="M998.039 5.40106V96.0133H992.638V5.40106H968.335V0.00012207H1022.34V5.40106H998.039Z" fill="#20214F"/>
<path fill-rule="evenodd" clip-rule="evenodd" d="M1112.56 13.052C1122.19 22.6732 1127 34.2849 1127 47.8868C1127 61.4885 1122.19 73.1004 1112.56 82.7215C1102.94 92.3427 1091.33 97.1536 1077.73 97.1536C1064.13 97.1536 1052.52 92.3427 1042.9 82.7215C1033.27 73.1004 1028.46 61.4885 1028.46 47.8868C1028.46 34.2849 1033.27 22.6732 1042.9 13.052C1052.52 3.43081 1064.13 -1.38013 1077.73 -1.38013C1091.33 -1.38013 1102.94 3.43081 1112.56 13.052ZM1077.73 4.14067C1065.65 4.14067 1055.34 8.41147 1046.8 16.9524C1038.25 25.4939 1033.98 35.8051 1033.98 47.8868C1033.98 59.9684 1038.25 70.2899 1046.8 78.8509C1055.34 87.4123 1065.65 91.6927 1077.73 91.6927C1089.81 91.6927 1100.12 87.4123 1108.66 78.8509C1117.21 70.2899 1121.48 59.9684 1121.48 47.8868C1121.48 35.8051 1117.21 25.4939 1108.66 16.9524C1100.12 8.41147 1089.81 4.14067 1077.73 4.14067Z" fill="#20214F"/>
<path fill-rule="evenodd" clip-rule="evenodd" d="M1166.84 62.6488C1166.32 62.6889 1165.78 62.7089 1165.22 62.7089H1148.9V96.0133H1143.5V0.00012207H1168.7C1176.02 1.00026 1182.24 4.06092 1187.36 9.18132C1193.49 15.3023 1196.55 22.6833 1196.55 31.3245C1196.55 40.0057 1193.49 47.4068 1187.36 53.5277C1183.12 57.768 1178.26 60.5485 1172.78 61.8688L1194.93 96.0133H1188.26L1166.84 62.6488ZM1148.9 5.46079V57.2479H1165.22C1172.34 57.2479 1178.43 54.7179 1183.49 49.6571C1188.56 44.5963 1191.09 38.4856 1191.09 31.3245C1191.09 24.1635 1188.56 18.0625 1183.49 13.0221C1178.43 7.98132 1172.34 5.46079 1165.22 5.46079H1148.9Z" fill="#20214F"/>
<path fill-rule="evenodd" clip-rule="evenodd" d="M1255.23 59.2284H1221.99L1208.61 96.0134H1202.85L1238.61 -2.21997L1274.32 96.0134H1268.62L1255.23 59.2284ZM1253.25 53.8275L1238.61 13.5623L1223.97 53.8275H1253.25Z" fill="#20214F"/>
<path fill-rule="evenodd" clip-rule="evenodd" d="M0.000244141 -2.23279V148.371L150.608 -2.23279H0.000244141Z" fill="#EE3542"/>
<path fill-rule="evenodd" clip-rule="evenodd" d="M0.000244141 203.483V354.091H150.608L0.000244141 203.483Z" fill="#EE3542"/>
<path fill-rule="evenodd" clip-rule="evenodd" d="M193.819 -2.23279L0.000244141 191.581V353.847L356.083 -2.23279H193.819Z" fill="#EE3542"/>
<path fill-rule="evenodd" clip-rule="evenodd" d="M193.819 354.091L118.512 278.786L148.604 248.689L199.416 197.585L209.273 207.278L356.083 354.091H193.819Z" fill="#EE3542"/>
</svg>
